<svg height="24" width="24" xmlns="http://www.w3.org/2000/svg">
  <path
    d="m3.91 0c-.011 1.066.027 2.136-.019 3.202-.182.93-1.218.805-1.936.797-.653 0-1.302 0-1.955 0v4c1.078.041 2.179-.087 3.246.079.896.42.539 1.497.611 2.276-.011 1.614.027 3.236-.019 4.85-.182.93-1.219.805-1.936.798-.634 0-1.268 0-1.898 0v3.999c1.036.011 2.077-.026 3.109.019.934.181.809 1.213.801 1.928v2.052h4.07c.011-1.032-.027-2.064.019-3.096.182-.93 1.219-.805 1.936-.798 1.758.015 3.519-.026 5.277.019.934.181.809 1.213.801 1.928v1.943h3.963c.011-1.066-.027-2.136.019-3.202.182-.93 1.219-.805 1.936-.798h2.061c0-1.334 0-2.669 0-3.999-1.074-.034-2.175.095-3.242-.072-.892-.42-.539-1.497-.611-2.279.015-1.614-.027-3.232.019-4.846.186-.93 1.222-.805 1.94-.798h1.898c0-1.334 0-2.669 0-3.999-1.071-.015-2.145.023-3.215-.023-.934-.181-.809-1.213-.801-1.928 0-.684 0-1.368 0-2.053-1.321 0-2.642 0-3.963 0-.011 1.032.027 2.064-.019 3.096-.186.93-1.222.801-1.94.798-1.758-.015-3.519.026-5.277-.019-.934-.185-.809-1.217-.801-1.931 0-.646 0-1.297 0-1.943-1.359 0-2.714 0-4.073 0z"
    fill="#f00" />
  <path
    d="m16.567 11.367-7.475-4.268a.74.737 0 0 0 -1.108.639v8.528a.74.737 0 0 0 1.109.639l7.474-4.268a.733.73 0 0 0 0-1.27z"
    fill="#fff" />
</svg>